# xmcd
#
# Track frame offsets:
#	150
#	35852
#	84616
#	118511
#	149591
#	182475
#
# Disc length: 2818 seconds
#
# Revision: 1
# Processed by: cddbd v1.5.2PL0 Copyright (c) Steve Scherf et al.
# Submitted via: audiograbber 1.83.01
#
DISCID=520b0006
DTITLE=Grateful Dead - 82-10-10 Frost Amphitheatre, Palo Alto CA
DYEAR=1900
DGENRE=
TTITLE0=Playing In The Band
TTITLE1=Crazy Fingers
TTITLE2=Lost Sailor
TTITLE3=Saint Of Circumstance
TTITLE4=Touch Of Grey
TTITLE5=Drums
EXTD=
EXTT0=
EXTT1=
EXTT2=
EXTT3=
EXTT4=
EXTT5=
PLAYORDER=
